#!OML:ASF F:\VICON\USERDATA\INSTALL\Justin_Nancy\Justin_Nancy.ASF
:FULLY-SPECIFIED
:DEGREES
199
root 1.90077 16.8978 8.65842 8.69403 44.1716 8.9201
lowerback 6.78815 -2.41698 -9.32348
upperback 0.381935 -3.86919 1.71371
thorax -2.6745 -1.80893 7.37568
lowerneck -15.9908 -3.02347 -9.52723
upperneck 23.0107 -2.4738 3.61361
head 10.1666 -1.51605 2.54785
rclavicle 7.59357e-014 -7.95139e-016
rhumerus -40.531 -18.2992 -75.5292
rradius 25.475
rwrist 9.27309
rhand -17.3784 12.9302
rfingers 7.12502
rthumb 8.87016 -16.8634
lclavicle 7.59357e-014 -7.95139e-016
lhumerus -26.9843 1.98664 86.3347
lradius 44.1618
lwrist -1.14591
lhand -17.1107 29.5372
lfingers 7.12502
lthumb 9.12851 59.3197
rfemur -33.339 -2.31457 15.0196
rtibia 21.9326
rfoot -6.30619 -5.73166
rtoes -14.5233
lfemur 14.9888 -1.83843 -31.5629
ltibia 20.7668
lfoot -10.7897 -5.7924
ltoes -14.548
200
root 2.03844 16.9372 8.92217 7.88689 44.0753 7.71984
lowerback 6.38398 -2.36373 -9.06382
upperback 0.338859 -3.73253 2.08438
thorax -2.51061 -1.75114 7.59143
lowerneck -16.122 -2.97568 -9.59308
upperneck 23.2394 -2.34582 3.50694
head 10.2657 -1.47807 2.54059
rclavicle 7.60351e-014 0
rhumerus -40.9786 -19.2762 -74.7305
rradius 24.8374
rwrist 10.3792
rhand -17.3693 12.8112
rfingers 7.12502
rthumb 8.879 -16.982
lclavicle 7.60351e-014 0
lhumerus -27.0558 2.68185 86.1571
lradius 43.7819
lwrist -1.11348
lhand -17.2483 28.8202
lfingers 7.12502
lthumb 8.99578 58.6084
rfemur -33.0901 -0.487033 15.9372
rtibia 23.2153
rfoot -5.26175 -5.49738
rtoes -12.4972
lfemur 15.0979 -1.99049 -30.3042
ltibia 21.5869
lfoot -8.56943 -6.5368
ltoes -16.1544
201
root 2.21427 16.9885 9.14119 8.39747 44.944 8.60807
lowerback 6.5235 -2.58687 -9.19572
upperback 0.147515 -4.06712 1.87802
thorax -2.73116 -1.8979 7.48264
lowerneck -15.8982 -3.00363 -9.68077
upperneck 23.399 -2.37192 3.47023
head 10.2847 -1.5053 2.54184
rclavicle 1.24638e-013 -2.62396e-014
rhumerus -41.6173 -20.4766 -73.7051
rradius 24.255
rwrist 11.4824
rhand -17.1211 12.4635
rfingers 7.12502
rthumb 9.11845 -17.3194
lclavicle 1.24638e-013 -2.62396e-014
lhumerus -27.1141 3.31643 86.0356
lradius 43.2232
lwrist -1.48033
lhand -17.1298 27.8102
lfingers 7.12502
lthumb 9.11009 57.5934
rfemur -32.6433 -1.19241 15.3542
rtibia 24.1313
rfoot -2.97109 -3.12908
rtoes -8.70659
lfemur 15.1824 -2.56662 -30.4468
ltibia 22.7898
lfoot -6.03884 -8.00121
ltoes -17.1541
202
root 2.39728 17.0188 9.33333 8.95386 45.9575 9.69879
lowerback 7.01627 -2.80515 -9.20722
upperback -0.0943718 -4.42431 1.65
thorax -3.21098 -2.04059 7.31388
lowerneck -15.5625 -3.03468 -9.58971
upperneck 23.4543 -2.37989 3.11638
head 10.238 -1.54368 2.40137
rclavicle -4.17448e-014 -7.95139e-016
rhumerus -42.2885 -21.4551 -72.5817
rradius 23.689
rwrist 12.0457
rhand -17.0388 12.4736
rfingers 7.12502
rthumb 9.19791 -17.3058
lclavicle -4.17448e-014 -7.95139e-016
lhumerus -27.3179 3.66958 86.1787
lradius 42.9986
lwrist -1.56607
lhand -16.634 27.4058
lfingers 7.12502
lthumb 9.58844 57.1676
rfemur -32.2986 -2.29797 14.4665
rtibia 25.0785
rfoot -1.44703 -0.701959
rtoes -5.29433
lfemur 15.106 -3.29402 -30.8057
ltibia 24.3546
lfoot -2.97168 -9.39156
ltoes -18.2227
203
root 2.55725 17.0488 9.55322 8.25651 46.3735 8.95209
lowerback 7.15798 -2.88882 -8.63269
upperback -0.163303 -4.49751 1.84406
thorax -3.37593 -2.07437 7.21406
lowerneck -15.7028 -2.93895 -9.36792
upperneck 23.6832 -2.19932 2.77979
head 10.3292 -1.48307 2.27044
rclavicle 1.41137e-014 0
rhumerus -42.6741 -22.1943 -71.7997
rradius 23.1724
rwrist 12.2831
rhand -17.121 12.5764
rfingers 7.12502
rthumb 9.11863 -17.2065
lclavicle 1.41137e-014 0
lhumerus -27.5421 3.9664 86.1287
lradius 42.8721
lwrist -1.16737
lhand -15.9814 27.054
lfingers 7.12502
lthumb 10.2181 56.7858
rfemur -31.969 -1.8767 14.9947
rtibia 26.1309
rfoot -1.13734 -0.974699
rtoes -4.78354
lfemur 14.5506 -3.88942 -29.9743
ltibia 26.3817
lfoot 0.495062 -10.3668
ltoes -19.5851
204
root 2.70447 17.0847 9.79576 6.8602 46.3967 7.10294
lowerback 6.96691 -2.85235 -7.70812
upperback -0.171031 -4.3417 2.2482
thorax -3.33977 -2.01239 7.09521
lowerneck -15.9739 -2.92547 -9.35697
upperneck 24.0816 -2.16315 2.82645
head 10.5243 -1.46582 2.29359
rclavicle 7.0171e-014 4.77083e-015
rhumerus -43.0598 -23.0607 -71.0566
rradius 22.6937
rwrist 12.7434
rhand -17.2695 12.6335
rfingers 7.12502
rthumb 8.97533 -17.1556
lclavicle 7.0171e-014 4.77083e-015
lhumerus -27.7137 4.5798 85.808
lradius 42.3305
lwrist -0.979018
lhand -15.5144 25.487
lfingers 7.12502
lthumb 10.6686 55.1961
rfemur -31.2709 -0.503822 16.42
rtibia 26.9524
rfoot -0.789732 -3.12679
rtoes -3.46643
lfemur 13.3515 -4.11273 -28.2321
ltibia 29.1287
lfoot 4.16176 -11.2795
ltoes -19.1692
205
root 2.85476 17.1062 10.0136 5.79175 46.173 5.74466
lowerback 6.96981 -2.69746 -6.87555
upperback -0.257153 -4.05861 2.50928
thorax -3.5184 -1.87271 6.88337
lowerneck -16.1428 -2.96416 -9.38964
upperneck 24.4524 -2.18003 2.80508
head 10.6956 -1.48456 2.29253
rclavicle -2.57426e-014 -4.77083e-015
rhumerus -43.5784 -23.8981 -70.2037
rradius 22.2995
rwrist 13.489
rhand -17.494 12.6611
rfingers 7.12502
rthumb 8.75866 -17.1372
lclavicle -2.57426e-014 -4.77083e-015
lhumerus -27.858 5.30873 85.5897
lradius 41.5653
lwrist -1.32764
lhand -15.4301 25.1738
lfingers 7.12502
lthumb 10.7499 54.8788
rfemur -30.528 0.918739 17.4425
rtibia 27.6197
rfoot -0.244044 -4.46266
rtoes -2.03453
lfemur 11.8597 -4.11466 -26.9623
ltibia 32.3046
lfoot 7.71515 -11.5773
ltoes -17.1542
206
root 3.00627 17.1315 10.2195 4.67774 45.8744 4.44612
lowerback 7.15377 -2.48335 -5.90447
upperback -0.280618 -3.69323 2.70409
thorax -3.75349 -1.69543 6.52222
lowerneck -16.3008 -3.02899 -9.49309
upperneck 24.5843 -2.24733 2.89104
head 10.7825 -1.51611 2.33219
rclavicle 5.60573e-014 0
rhumerus -43.977 -24.7536 -69.3747
rradius 21.9141
rwrist 14.1462
rhand -17.2501 12.6742
rfingers 7.12502
rthumb 8.99398 -17.1141
lclavicle 5.60573e-014 0
lhumerus -27.9004 6.09812 85.4029
lradius 40.7951
lwrist -1.9804
lhand -15.2185 24.8912
lfingers 7.12502
lthumb 10.954 54.5855
rfemur -29.87 1.98598 18.5895
rtibia 28.2897
rfoot 0.370935 -3.98697
rtoes 0.0305259
lfemur 10.3474 -3.83827 -25.7243
ltibia 35.5337
lfoot 11.0158 -12.2121
ltoes -14.3583
207
root 3.15402 17.1713 10.4327 3.48482 45.5917 3.0921
lowerback 7.20171 -2.24128 -4.94466
upperback -0.161953 -3.28005 2.8686
thorax -3.76189 -1.50828 6.11276
lowerneck -16.4146 -3.18817 -9.62799
upperneck 24.5903 -2.50263 3.18441
head 10.8299 -1.60935 2.4244
rclavicle -3.34455e-014 -7.95139e-015
rhumerus -44.1352 -25.7979 -68.6755
rradius 21.3985
rwrist 14.7845
rhand -17.2507 12.9925
rfingers 7.12502
rthumb 8.99347 -16.7958
lclavicle -3.34455e-014 -7.95139e-015
lhumerus -27.7253 6.59413 85.3064
lradius 40.0874
lwrist -2.34414
lhand -15.4621 24.2366
lfingers 7.12502
lthumb 10.7191 53.9431
rfemur -29.1571 2.46581 20.0129
rtibia 28.9282
rfoot 0.710995 -2.5707
rtoes 2.25513
lfemur 8.84066 -3.47443 -24.3809
ltibia 38.6784
lfoot 13.9012 -13.9525
ltoes -12.5915
208
root 3.30217 17.2093 10.6446 2.76765 45.4762 2.38173
lowerback 7.28521 -2.04359 -4.39736
upperback -0.0719734 -2.96904 2.90411
thorax -3.78331 -1.36397 5.81205
lowerneck -16.5822 -3.38383 -9.54219
upperneck 24.6231 -2.78187 3.16706
head 10.8935 -1.73039 2.36242
rclavicle -9.03973e-014 -3.18055e-015
rhumerus -44.2633 -26.6157 -68.1846
rradius 20.9443
rwrist 15.3238
rhand -17.5725 13.1758
rfingers 7.12502
rthumb 8.68291 -16.6256
lclavicle -9.03973e-014 -3.18055e-015
lhumerus -27.626 7.06949 85.2456
lradius 39.4992
lwrist -2.51687
lhand -17.6474 25.6127
lfingers 7.12502
lthumb 8.61063 55.4171
rfemur -28.2952 2.7112 20.942
rtibia 29.4615
rfoot 0.453767 -2.26754
rtoes 2.19667
lfemur 7.33797 -3.50072 -23.5775
ltibia 41.7094
lfoot 17.9959 -14.3376
ltoes -6.66594
209
root 3.44923 17.2428 10.8432 2.71821 45.6124 2.57188
lowerback 7.49813 -2.00861 -4.41375
upperback -0.033856 -2.93394 2.82545
thorax -3.87098 -1.34448 5.74515
lowerneck -16.7085 -3.44257 -9.43962
upperneck 24.5609 -2.8561 3.07124
head 10.8971 -1.76477 2.29765
rclavicle -2.48978e-014 -1.59028e-015
rhumerus -44.1972 -26.6965 -68.153
rradius 20.8246
rwrist 15.4996
rhand -17.3817 12.7659
rfingers 7.12502
rthumb 8.86698 -17.0278
lclavicle -2.48978e-014 -1.59028e-015
lhumerus -27.7596 7.76743 85.1219
lradius 39.0592
lwrist -2.88928
lhand -18.4781 27.3232
lfingers 7.12502
lthumb 7.80892 57.159
rfemur -27.3207 2.91702 21.0582
rtibia 29.8866
rfoot -0.155621 -3.29402
rtoes 0.174682
lfemur 5.74571 -3.82313 -23.4856
ltibia 44.6469
lfoot 21.9531 -14.4253
ltoes -0.986927
210
root 3.59429 17.2765 11.0421 2.67745 45.7986 2.78819
lowerback 7.57648 -2.03077 -4.62699
upperback 0.0609634 -2.98507 2.80677
thorax -3.79958 -1.37061 5.85243
lowerneck -16.5856 -3.40571 -9.43023
upperneck 24.3487 -2.86281 3.22389
head 10.7955 -1.74591 2.3494
rclavicle -6.6891e-014 -7.15625e-015
rhumerus -43.8559 -26.4416 -68.3726
rradius 20.8595
rwrist 15.4521
rhand -16.8656 12.1509
rfingers 7.12502
rthumb 9.36504 -17.6211
lclavicle -6.6891e-014 -7.15625e-015
lhumerus -28.0559 8.01091 85.0439
lradius 38.9359
lwrist -2.8685
lhand -18.8803 29.2989
lfingers 7.12502
lthumb 7.42073 59.1487
rfemur -26.2568 3.19987 21.0326
rtibia 30.116
rfoot -1.12084 -4.09085
rtoes 2.74772
lfemur 4.03591 -3.96384 -23.3757
ltibia 47.5051
lfoot 25.0469 -14.9828
ltoes 1.0064
211
root 3.73545 17.3046 11.2432 2.23501 46.0605 2.53314
lowerback 7.71927 -2.01524 -4.50368
upperback 0.202586 -2.95343 2.87361
thorax -3.73843 -1.36122 5.85246
lowerneck -16.5702 -3.47632 -9.62282
upperneck 24.1956 -2.9756 3.46624
head 10.7511 -1.78374 2.45165
rclavicle -1.33683e-014 -7.15625e-015
rhumerus -43.4124 -26.1466 -68.6915
rradius 20.9135
rwrist 15.2794
rhand -16.494 11.577
rfingers 7.12502
rthumb 9.7236 -18.1786
lclavicle -1.33683e-014 -7.15625e-015
lhumerus -28.1804 8.14425 84.9675
lradius 38.565
lwrist -3.11918
lhand -18.4211 28.7121
lfingers 7.12502
lthumb 7.86389 58.5458
rfemur -25.0235 3.68719 21.2808
rtibia 30.0404
rfoot -2.26297 -4.8074
rtoes 9.06993
lfemur 2.33705 -4.31703 -23.0088
ltibia 50.3759
lfoot 27.0096 -15.266
ltoes 0.647592
